HIERARCHY
ROOT Hips
{
	OFFSET 46.341301 -7.855906 95.601997
	CHANNELS 6 Xposition Yposition Zposition Xrotation Yrotation Zrotation
	JOINT spine
	{
		OFFSET 0.000000 -0.458069 7.965683
		CHANNELS 3 Xrotation Yrotation Zrotation
		JOINT spine1
		{
			OFFSET 0.000000 -0.000001 10.243103
			CHANNELS 3 Xrotation Yrotation Zrotation
			JOINT spine2
			{
				OFFSET 0.000000 -0.000002 9.814751
				CHANNELS 3 Xrotation Yrotation Zrotation
				JOINT Neck
				{
					OFFSET 0.000000 -1.201384 25.198593
					CHANNELS 3 Xrotation Yrotation Zrotation
					JOINT Head
					{
						OFFSET 0.000000 -0.000002 7.613144
						CHANNELS 3 Xrotation Yrotation Zrotation
						End Site
						{
							OFFSET 0.000000 6.077328 18.428101
						}
					}
				}
				JOINT RightShoulder
				{
					OFFSET -4.132698 0.575449 10.599197
					CHANNELS 3 Xrotation Yrotation Zrotation
					JOINT RightArm
					{
						OFFSET 0.000000 -0.000002 13.901794
						CHANNELS 3 Xrotation Yrotation Zrotation
						JOINT RightArmRoll
						{
							OFFSET 0.000000 -0.000001 7.017883
							CHANNELS 3 Xrotation Yrotation Zrotation
							JOINT RightForeArm
							{
								OFFSET 0.000000 -0.000003 20.440598
								CHANNELS 3 Xrotation Yrotation Zrotation
								JOINT RightForeArmRoll
								{
									OFFSET 0.000000 -0.000001 7.875153
									CHANNELS 3 Xrotation Yrotation Zrotation
									JOINT RightHand
									{
										OFFSET 0.000000 -0.000002 15.803696
										CHANNELS 3 Xrotation Yrotation Zrotation
										End Site
										{
											OFFSET 0.000000 0.000000 0.100006
										}
									}
								}
							}
						}
					}
				}
				JOINT LeftShoulder
				{
					OFFSET 4.132698 0.575449 10.599197
					CHANNELS 3 Xrotation Yrotation Zrotation
					JOINT LeftArm
					{
						OFFSET 0.000000 -0.000002 13.901794
						CHANNELS 3 Xrotation Yrotation Zrotation
						JOINT LeftArmRoll
						{
							OFFSET 0.000000 -0.000001 7.017883
							CHANNELS 3 Xrotation Yrotation Zrotation
							JOINT LeftForeArm
							{
								OFFSET 0.000000 -0.000003 20.440598
								CHANNELS 3 Xrotation Yrotation Zrotation
								JOINT LeftForeArmRoll
								{
									OFFSET 0.000000 -0.000001 7.875153
									CHANNELS 3 Xrotation Yrotation Zrotation
									JOINT LeftHand
									{
										OFFSET 0.000000 -0.000002 15.803696
										CHANNELS 3 Xrotation Yrotation Zrotation
										End Site
										{
											OFFSET 0.000000 0.000000 0.100006
										}
									}
								}
							}
						}
					}
				}
			}
		}
	}
	JOINT RightUpLeg
	{
		OFFSET -7.060478 1.086101 -1.294701
		CHANNELS 3 Xrotation Yrotation Zrotation
		JOINT RightUpLegRoll
		{
			OFFSET 0.000000 -0.000003 18.530800
			CHANNELS 3 Xrotation Yrotation Zrotation
			JOINT RightLeg
			{
				OFFSET 0.000000 0.000004 -22.947601
				CHANNELS 3 Xrotation Yrotation Zrotation
				JOINT RightLegRoll
				{
					OFFSET 0.000000 -0.000004 23.022598
					CHANNELS 3 Xrotation Yrotation Zrotation
					JOINT RightFoot
					{
						OFFSET 0.000000 -0.000003 19.162498
						CHANNELS 3 Xrotation Yrotation Zrotation
						JOINT RightToeBase
						{
							OFFSET 0.000000 -0.000003 16.018799
							CHANNELS 3 Xrotation Yrotation Zrotation
							End Site
							{
								OFFSET 0.006790 0.894205 7.757812
							}
						}
					}
				}
			}
		}
	}
	JOINT LeftUpLeg
	{
		OFFSET 7.060478 1.086101 -1.294701
		CHANNELS 3 Xrotation Yrotation Zrotation
		JOINT LeftUpLegRoll
		{
			OFFSET 0.000000 -0.000003 18.530899
			CHANNELS 3 Xrotation Yrotation Zrotation
			JOINT LeftLeg
			{
				OFFSET 0.000000 -0.000003 22.947495
				CHANNELS 3 Xrotation Yrotation Zrotation
				JOINT LeftLegRoll
				{
					OFFSET 0.000000 -0.000004 23.235504
					CHANNELS 3 Xrotation Yrotation Zrotation
					JOINT LeftFoot
					{
						OFFSET 0.000000 -0.000003 18.949600
						CHANNELS 3 Xrotation Yrotation Zrotation
						JOINT LeftToeBase
						{
							OFFSET 0.000000 -0.000002 16.018799
							CHANNELS 3 Xrotation Yrotation Zrotation
							End Site
							{
								OFFSET -0.030430 0.894205 7.757812
							}
						}
					}
				}
			}
		}
	}
}
MOTION
Frames: 9
Frame Time: 0.041667
49.823395 -7.471148 95.568993 -4.015215 1.969826 -5.141808 -1.467706 -0.785279 0.010350 1.067467 -1.562029 0.006075 2.712808 -1.561798 0.024831 23.327466 -0.704792 11.700821 -7.260200 5.889178 11.412601 12.298987 -64.284825 13.244586 1.660642 -100.398276 -30.837795 -0.000000 0.000007 -0.000007 73.793371 -8.925146 3.249908 -0.000005 0.000001 -3.007470 -4.999738 -7.999015 0.000015 -4.675907 73.321452 6.792133 -30.958580 96.152760 70.050372 0.000001 -0.000003 -0.000012 80.789629 8.519927 -0.302568 0.000027 -0.000012 3.009710 -4.999751 7.999075 -0.000034 3.291309 -176.895110 -2.524595 -179.999991 0.000005 -1.182997 175.332486 -1.982410 -0.607826 0.000001 0.000002 0.045354 68.958847 6.960611 1.973698 25.464371 -7.351260 0.002081 3.795211 171.913539 -1.907748 -0.000020 -0.000004 -1.221500 -9.072510 2.300270 0.418147 0.000000 0.000007 -0.260827 72.767087 -6.872908 -1.882873 25.494212 7.353578 -0.047901 
49.810799 -7.462618 95.575485 -4.012079 1.971879 -5.158342 -1.465994 -0.785249 0.010219 1.070898 -1.562777 0.005574 2.716241 -1.562543 0.024332 23.313244 -0.718568 11.714147 -7.252049 5.906846 11.424189 12.298533 -64.285057 13.244026 1.590713 -100.393911 -30.931249 -0.000000 0.000006 -0.000009 73.783037 -8.937227 3.263755 -0.000005 0.000002 -3.007469 -4.999742 -7.999022 0.000013 -4.665946 73.307341 6.780109 -31.150239 96.189534 70.187461 0.000003 -0.000002 -0.000012 80.735944 8.553730 -0.339486 0.000027 -0.000010 3.009710 -4.999755 7.999081 -0.000035 3.279563 -176.903074 -2.530278 -179.999991 0.000004 -1.182000 175.329276 -1.983395 -0.608019 0.000001 0.000002 0.045354 68.958000 6.959930 1.974224 25.464374 -7.351259 0.002080 3.793159 171.905534 -1.912943 -0.000020 -0.000003 -1.221520 -9.073301 2.300067 0.418106 0.000001 0.000007 -0.260782 72.765482 -6.872913 -1.882872 25.494099 7.353575 -0.048892 
49.799301 -7.466696 95.573990 -4.009023 1.973842 -5.174881 -1.464245 -0.785196 0.010113 1.074420 -1.563515 0.005101 2.719753 -1.563268 0.023861 23.298615 -0.732578 11.727464 -7.243871 5.924594 11.435778 12.297496 -64.285057 13.242869 1.522463 -100.390592 -31.024956 0.000000 0.000007 -0.000006 73.773222 -8.949199 3.277657 -0.000003 0.000000 -3.007471 -4.999742 -7.999021 0.000012 -4.655932 73.292834 6.767982 -31.332499 96.226253 70.316244 0.000001 -0.000003 -0.000010 80.683823 8.586837 -0.375450 0.000026 -0.000011 3.009710 -4.999750 7.999080 -0.000037 3.267918 -176.911025 -2.535632 -179.999991 0.000005 -1.182000 175.326284 -1.985387 -0.608285 0.000001 0.000002 0.045354 68.957160 6.959285 1.974558 25.464374 -7.351260 0.002081 3.791526 171.897543 -1.918007 -0.000020 -0.000004 -1.221560 -9.073450 2.299838 0.418046 0.000001 0.000007 -0.260715 72.763638 -6.872903 -1.882884 25.494096 7.353575 -0.049922 
49.781200 -7.454893 95.572792 -4.006004 1.975744 -5.191422 -1.462467 -0.785127 0.010023 1.077991 -1.564253 0.004647 2.723334 -1.564003 0.023410 23.283695 -0.746755 11.740739 -7.235665 5.942412 11.447368 12.296072 -64.284866 13.241321 1.455626 -100.386282 -31.118786 -0.000001 0.000008 -0.000008 73.763625 -8.961167 3.291775 -0.000003 -0.000002 -3.007474 -4.999742 -7.999019 0.000013 -4.645856 73.277910 6.755748 -31.508814 96.262774 70.439884 0.000002 -0.000002 -0.000009 80.632699 8.619545 -0.410691 0.000027 -0.000007 3.009712 -4.999749 7.999074 -0.000035 3.256357 -176.918975 -2.540759 -179.999991 0.000005 -1.182000 175.323429 -1.987368 -0.608547 0.000000 0.000002 0.045354 68.956408 6.958572 1.974972 25.464373 -7.351262 0.002080 3.790185 171.889538 -1.922971 -0.000020 -0.000004 -1.221600 -9.073138 2.299584 0.417971 0.000001 0.000007 -0.260633 72.761595 -6.872903 -1.882912 25.494002 7.353570 -0.050956 
49.762199 -7.446022 95.568298 -4.003015 1.977607 -5.207955 -1.460677 -0.785050 0.009945 1.081603 -1.564991 0.004204 2.726947 -1.564727 0.022969 23.268574 -0.761031 11.754043 -7.227461 5.960259 11.458851 12.294386 -64.284511 13.239494 1.389502 -100.381986 -31.212708 -0.000001 0.000007 -0.000008 73.754234 -8.973075 3.306010 -0.000004 0.000000 -3.007470 -4.999740 -7.999013 0.000014 -4.635709 73.262795 6.743438 -31.680610 96.299308 70.559440 0.000002 -0.000002 -0.000010 80.582285 8.651958 -0.445381 0.000028 -0.000010 3.009711 -4.999750 7.999085 -0.000034 3.244849 -176.925914 -2.545703 -179.999991 0.000005 -1.181003 175.320656 -1.989347 -0.607795 0.000001 0.000002 0.045354 68.955568 6.957927 1.975406 25.464374 -7.351260 0.002081 3.789018 171.881560 -1.927890 -0.000020 -0.000004 -1.221650 -9.072567 2.299311 0.417886 0.000001 0.000006 -0.260541 72.759437 -6.872913 -1.882844 25.493901 7.353569 -0.051989 
49.751396 -7.440247 95.570488 -4.000041 1.979460 -5.224499 -1.458879 -0.784970 0.009868 1.085225 -1.565729 0.003765 2.730560 -1.565451 0.022530 23.253452 -0.775335 11.767349 -7.219258 5.978119 11.470440 12.292669 -64.284142 13.237632 1.323441 -100.378714 -31.306677 -0.000000 0.000007 -0.000008 73.744842 -8.984988 3.320049 -0.000004 0.000002 -3.007471 -4.999741 -7.999020 0.000014 -4.625619 73.247679 6.731155 -31.850118 96.335870 70.676878 0.000002 -0.000003 -0.000008 80.531946 8.684475 -0.480042 0.000027 -0.000009 3.009710 -4.999748 7.999080 -0.000034 3.233336 -176.933878 -2.550662 -179.999991 0.000005 -1.181003 175.317897 -1.992334 -0.608135 0.000001 0.000002 0.045354 68.954824 6.957252 1.975726 25.464371 -7.351262 0.002080 3.787881 171.874552 -1.932738 -0.000020 -0.000004 -1.221700 -9.071933 2.299049 0.417803 0.000002 0.000007 -0.260448 72.757265 -6.872893 -1.882774 25.493797 7.353575 -0.053037 
49.743198 -7.446140 95.571991 -3.997042 1.981333 -5.241032 -1.457087 -0.784894 0.009786 1.088826 -1.566467 0.003320 2.734162 -1.566186 0.022087 23.238433 -0.789600 11.780636 -7.211056 5.995968 11.481915 12.291065 -64.283869 13.235903 1.257115 -100.374438 -31.400606 0.000000 0.000006 -0.000007 73.735355 -8.996933 3.334172 -0.000003 0.000000 -3.007471 -4.999742 -7.999017 0.000012 -4.615506 73.232557 6.718881 -32.019674 96.372514 70.794043 0.000001 -0.000004 -0.000009 80.481376 8.717158 -0.514736 0.000027 -0.000011 3.009710 -4.999750 7.999080 -0.000036 3.221810 -176.940832 -2.555631 -179.999991 0.000005 -1.180006 175.315124 -1.994314 -0.608395 0.000001 0.000002 0.045354 68.954072 6.956539 1.976138 25.464371 -7.351259 0.002081 3.786675 171.866547 -1.937671 -0.000020 -0.000004 -1.221740 -9.071430 2.298786 0.417721 0.000002 0.000007 -0.260359 72.755114 -6.872900 -1.882808 25.493700 7.353573 -0.054079 
49.724602 -7.436439 95.569389 -3.994013 1.983234 -5.257574 -1.455317 -0.784831 0.009692 1.092389 -1.567205 0.002861 2.737724 -1.566910 0.021630 23.223622 -0.803759 11.793867 -7.202866 6.013779 11.493484 12.289738 -64.283685 13.234432 1.189867 -100.370183 -31.494439 -0.000000 0.000007 -0.000007 73.725765 -9.008900 3.348179 -0.000003 0.000002 -3.007471 -4.999745 -7.999017 0.000015 -4.605535 73.217750 6.706760 -32.191569 96.409268 70.913114 0.000002 -0.000003 -0.000010 80.430218 8.750241 -0.549928 0.000027 -0.000011 3.009711 -4.999751 7.999077 -0.000035 3.210229 -176.948782 -2.560806 -179.999991 0.000004 -1.180006 175.312214 -1.996308 -0.608661 0.000000 0.000002 0.045353 68.953239 6.955894 1.976571 25.464374 -7.351260 0.002080 3.785256 171.858570 -1.942662 -0.000020 -0.000004 -1.221790 -9.071248 2.298530 0.417649 0.000001 0.000007 -0.260281 72.753058 -6.872900 -1.882834 25.493587 7.353569 -0.055101 
49.705601 -7.425306 95.570686 -3.990928 1.985218 -5.274113 -1.453574 -0.784784 0.009578 1.095881 -1.567943 0.002380 2.741217 -1.567645 0.021152 23.209102 -0.817742 11.807122 -7.194696 6.031527 11.505042 12.288880 -64.283760 13.233462 1.121036 -100.366939 -31.588228 -0.000000 0.000007 -0.000007 73.715787 -9.020978 3.362137 -0.000002 0.000004 -3.007471 -4.999740 -7.999018 0.000013 -4.595672 73.203427 6.694801 -32.368434 96.446096 71.036228 0.000002 -0.000003 -0.000011 80.377823 8.784059 -0.585726 0.000030 -0.000008 3.009711 -4.999748 7.999074 -0.000037 3.198560 -176.956746 -2.566243 -179.999991 0.000005 -1.180006 175.309154 -1.998286 -0.608931 0.000001 0.000002 0.045353 68.952385 6.955211 1.976998 25.464373 -7.351262 0.002082 3.783496 171.850551 -1.947765 -0.000020 -0.000004 -1.221820 -9.071587 2.298311 0.417595 0.000002 0.000007 -0.260220 72.751336 -6.872915 -1.882740 25.493497 7.353573 -0.056118 
